<svg width="280" height="281" viewBox="0 0 280 281" fill="none" xmlns="http://www.w3.org/2000/svg">
<g clip-path="url(#clip0_885_26670)">
<path d="M20.0984 263.942C26.0983 275.069 38.8323 279.846 38.8323 279.846C38.8323 279.846 41.8385 266.582 35.8386 255.455C29.8387 244.327 17.1047 239.551 17.1047 239.551C17.1047 239.551 14.0985 252.815 20.0984 263.942Z" fill="black"/>
<path d="M24.2232 260.281C35.0555 266.798 39.2274 279.743 39.2274 279.743C39.2274 279.743 25.8365 282.121 15.0042 275.604C4.17188 269.087 0 256.142 0 256.142C0 256.142 13.3908 253.764 24.2232 260.281Z" fill="#423F74"/>
<path d="M269.016 74.3008H201.43V75.2663H269.016V74.3008Z" fill="#F2F2F2"/>
<path d="M220.741 65.6094H219.775V74.5404H220.741V65.6094Z" fill="#F2F2F2"/>
<path d="M250.188 65.6094H249.223V74.5404H250.188V65.6094Z" fill="#F2F2F2"/>
<path d="M174.787 258.846H60.4766V258.024H173.964V218.138H70.0864L65.0401 207.625L65.7816 207.27L70.6039 217.316H174.787V258.846Z" fill="#2F2E41"/>
<path d="M75.6916 278.996C80.4606 278.996 84.3266 275.13 84.3266 270.362C84.3266 265.593 80.4606 261.727 75.6916 261.727C70.9227 261.727 67.0566 265.593 67.0566 270.362C67.0566 275.13 70.9227 278.996 75.6916 278.996Z" fill="#3F3D56"/>
<path d="M160.807 278.996C165.576 278.996 169.442 275.13 169.442 270.362C169.442 265.593 165.576 261.727 160.807 261.727C156.038 261.727 152.172 265.593 152.172 270.362C152.172 275.13 156.038 278.996 160.807 278.996Z" fill="#3F3D56"/>
<path d="M261.138 92.3159C264.091 92.3159 266.484 89.9227 266.484 86.9705C266.484 84.0183 264.091 81.625 261.138 81.625C258.186 81.625 255.793 84.0183 255.793 86.9705C255.793 89.9227 258.186 92.3159 261.138 92.3159Z" fill="#3F3D56"/>
<path d="M187.013 204.568H58.5278L30.7266 113.695H215.644L215.476 114.23L187.013 204.568ZM59.1362 203.746H186.41L214.523 114.518H31.8381L59.1362 203.746Z" fill="#2F2E41"/>
<path d="M176.983 199.843H64.1298L39.7109 119.25H202.131L201.983 119.725L176.983 199.843Z" fill="#F2F2F2"/>
<path d="M217.949 105.579L217.154 105.368L222.581 84.9141H254.148V85.7367H223.214L217.949 105.579Z" fill="#2F2E41"/>
<path d="M206.404 141.246H39.7109V142.068H206.404V141.246Z" fill="#2F2E41"/>
<path d="M196.858 171.547H48.9805V172.369H196.858V171.547Z" fill="#2F2E41"/>
<path d="M123.596 114.109H122.773V204.16H123.596V114.109Z" fill="#2F2E41"/>
<path d="M160.413 114.085L154.51 204.133L155.331 204.187L161.234 114.138L160.413 114.085Z" fill="#2F2E41"/>
<path d="M85.9692 114.079L85.1484 114.133L91.0175 204.183L91.8383 204.13L85.9692 114.079Z" fill="#2F2E41"/>
<path d="M280 279.516H0V280.481H280V279.516Z" fill="#2F2E41"/>
<path d="M96.6721 90.2305H29.0859V91.196H96.6721V90.2305Z" fill="#F2F2F2"/>
<path d="M48.3952 81.5391H47.4297V90.4701H48.3952V81.5391Z" fill="#F2F2F2"/>
<path d="M77.8444 81.5391H76.8789V90.4701H77.8444V81.5391Z" fill="#F2F2F2"/>
<path d="M188.395 42.4375H120.809V43.403H188.395V42.4375Z" fill="#F2F2F2"/>
<path d="M170.051 43.1602H169.086V52.0912H170.051V43.1602Z" fill="#F2F2F2"/>
<path d="M140.602 43.1602H139.637V52.0912H140.602V43.1602Z" fill="#F2F2F2"/>
<path d="M73.4983 41.9531H5.91211V42.9186H73.4983V41.9531Z" fill="#F2F2F2"/>
<path d="M55.155 42.6797H54.1895V51.6107H55.155V42.6797Z" fill="#F2F2F2"/>
<path d="M25.7058 42.6797H24.7402V51.6107H25.7058V42.6797Z" fill="#F2F2F2"/>
</g>
<defs>
<clipPath id="clip0_885_26670">
<rect width="280" height="280.966" fill="white"/>
</clipPath>
</defs>
</svg>
