<svg width="580" height="582" viewBox="0 0 580 582" fill="none" xmlns="http://www.w3.org/2000/svg">
<g clip-path="url(#clip0_885_26670)">
<path d="M41.6344 546.739C54.0628 569.788 80.4404 579.683 80.4404 579.683C80.4404 579.683 86.6675 552.207 74.2391 529.158C61.8106 506.109 35.4331 496.215 35.4331 496.215C35.4331 496.215 29.206 523.69 41.6344 546.739Z" fill="black"/>
<path d="M50.1765 539.153C72.6149 552.653 81.2567 579.467 81.2567 579.467C81.2567 579.467 53.5186 584.394 31.0802 570.894C8.64174 557.394 0 530.58 0 530.58C0 530.58 27.7381 525.653 50.1765 539.153Z" fill="#423F74"/>
<path d="M557.248 153.906H417.248V155.906H557.248V153.906Z" fill="#F2F2F2"/>
<path d="M457.248 135.906H455.248V154.406H457.248V135.906Z" fill="#F2F2F2"/>
<path d="M518.248 135.906H516.248V154.406H518.248V135.906Z" fill="#F2F2F2"/>
<path d="M362.059 536.185H125.273V534.482H360.355V451.862H145.179L134.726 430.085L136.262 429.348L146.251 450.158H362.059V536.185Z" fill="#2F2E41"/>
<path d="M156.789 577.918C166.668 577.918 174.676 569.91 174.676 560.031C174.676 550.153 166.668 542.145 156.789 542.145C146.911 542.145 138.902 550.153 138.902 560.031C138.902 569.91 146.911 577.918 156.789 577.918Z" fill="#3F3D56"/>
<path d="M333.1 577.918C342.978 577.918 350.986 569.91 350.986 560.031C350.986 550.153 342.978 542.145 333.1 542.145C323.221 542.145 315.213 550.153 315.213 560.031C315.213 569.91 323.221 577.918 333.1 577.918Z" fill="#3F3D56"/>
<path d="M540.928 191.228C547.044 191.228 552.001 186.27 552.001 180.155C552.001 174.039 547.044 169.082 540.928 169.082C534.813 169.082 529.855 174.039 529.855 180.155C529.855 186.27 534.813 191.228 540.928 191.228Z" fill="#3F3D56"/>
<path d="M387.385 423.752H121.237L63.6484 235.516H446.693L446.344 236.623L387.385 423.752ZM122.497 422.049H386.136L444.37 237.219H65.9508L122.497 422.049Z" fill="#2F2E41"/>
<path d="M366.61 413.959H132.842L82.2598 247.016H418.701L418.395 247.999L366.61 413.959Z" fill="#F2F2F2"/>
<path d="M451.465 218.701L449.818 218.264L461.059 175.895H526.448V177.599H462.37L451.465 218.701Z" fill="#2F2E41"/>
<path d="M427.551 292.582H82.2578V294.286H427.551V292.582Z" fill="#2F2E41"/>
<path d="M407.778 355.344H101.459V357.047H407.778V355.344Z" fill="#2F2E41"/>
<path d="M256.018 236.367H254.314V422.9H256.018V236.367Z" fill="#2F2E41"/>
<path d="M332.285 236.315L320.057 422.844L321.757 422.955L333.985 236.427L332.285 236.315Z" fill="#2F2E41"/>
<path d="M178.081 236.311L176.381 236.422L188.538 422.955L190.238 422.844L178.081 236.311Z" fill="#2F2E41"/>
<path d="M580 579H0V581H580V579Z" fill="#2F2E41"/>
<path d="M200.248 186.906H60.248V188.906H200.248V186.906Z" fill="#F2F2F2"/>
<path d="M100.248 168.906H98.248V187.406H100.248V168.906Z" fill="#F2F2F2"/>
<path d="M161.248 168.906H159.248V187.406H161.248V168.906Z" fill="#F2F2F2"/>
<path d="M390.248 87.9062H250.248V89.9062H390.248V87.9062Z" fill="#F2F2F2"/>
<path d="M352.248 89.4062H350.248V107.906H352.248V89.4062Z" fill="#F2F2F2"/>
<path d="M291.248 89.4062H289.248V107.906H291.248V89.4062Z" fill="#F2F2F2"/>
<path d="M152.248 86.9062H12.248V88.9062H152.248V86.9062Z" fill="#F2F2F2"/>
<path d="M114.248 88.4062H112.248V106.906H114.248V88.4062Z" fill="#F2F2F2"/>
<path d="M53.248 88.4062H51.248V106.906H53.248V88.4062Z" fill="#F2F2F2"/>
</g>
<defs>
<clipPath id="clip0_885_26670">
<rect width="580" height="582" fill="white"/>
</clipPath>
</defs>
</svg>
