<svg width="1601" height="1601" viewBox="0 0 1601 1601" fill="none" xmlns="http://www.w3.org/2000/svg">
<g clip-path="url(#clip0_149_743)">
<path d="M24.9999 1504.8C24.9999 1504.8 17.3999 1543.1 110.9 1554.7C207.7 1566.7 221.2 1600.3 221.2 1600.3" stroke="#788675" stroke-miterlimit="10" stroke-linecap="round"/>
<path d="M129.3 1600.3C120.4 1577.6 92.8999 1576.4 60.2999 1564.9C27.7999 1553.4 3.29993 1588.3 12.5999 1600.3" stroke="#788675" stroke-miterlimit="10" stroke-linecap="round"/>
<path d="M710.3 1600.2C739 1570.9 770.6 1557 810.3 1544.9C836.3 1537 905.3 1514.1 906.8 1560.8C907.3 1576.8 906.2 1590.3 896.8 1600.3" stroke="#788675" stroke-miterlimit="10" stroke-linecap="round"/>
<path d="M24.9999 1504.6C24.9999 1504.6 17.3999 1542.9 110.9 1554.5C207.7 1566.5 221.2 1600.1 221.2 1600.1" stroke="#788675" stroke-miterlimit="10" stroke-linecap="round"/>
<path d="M129.3 1600.1C120.4 1577.4 92.8999 1576.2 60.2999 1564.7C27.7999 1553.2 3.29993 1588.1 12.5999 1600.1" stroke="#788675" stroke-miterlimit="10" stroke-linecap="round"/>
<path d="M1115.3 1600.1C1115.3 1600.1 1116.1 1583.6 1130 1560.5C1143.9 1537.4 1175.8 1514.2 1181.6 1552.6C1187.3 1590.6 1187.1 1600 1187.1 1600" stroke="#788675" stroke-miterlimit="10" stroke-linecap="round"/>
<path d="M710.3 1600.1C739 1570.8 770.6 1556.9 810.3 1544.8C836.3 1536.9 905.3 1514 906.8 1560.7C907.3 1576.7 906.2 1590.2 896.8 1600.2" stroke="#788675" stroke-miterlimit="10" stroke-linecap="round"/>
<path d="M896.9 0.599976C894.2 3.49998 890.8 5.99998 886.6 8.29998C867.2 18.7 859.8 32.9 860.7 56.5C861.5 78.6 876.8 84 887.6 100.4C899.6 118.6 897.3 143.5 883.9 160C862.7 186 834.7 204.4 815.5 231.8C802.3 250.7 790.8 268.4 773 283.3C757.6 296.2 741.4 308.5 726.7 322.1C700.3 346.6 662.5 396.7 690.9 432.4C714.8 462.5 745.9 486 776.9 507.5C791.9 517.9 803.1 534.3 803.6 552.9C803.8 559 800.4 564.9 800.8 571.4C801.4 581.1 806.4 588.2 805.1 598.5C802.2 621.4 782.4 622.9 765.5 633.3C751.5 641.9 744.6 658.4 746.7 674.9C748.2 686.5 753.2 695.3 751.7 708.8C749.5 728.1 740.5 744.9 736.4 763.6C731.6 785.3 738.3 807.1 737.5 829.2C736.7 851.6 732.7 872.1 722.5 892.3C712.8 911.6 702.5 930.2 700.6 952.2C698.7 973 706.3 999 699 1019C693.2 1034.7 674.4 1042.7 660.4 1049.7C638.4 1060.6 615.6 1070.1 593.9 1081.7C573.9 1092.4 527.3 1141.3 549.8 1163.7C571.3 1185.2 636.8 1173.8 661 1162.3C675.4 1155.5 693.6 1135.3 711 1138.4C722.2 1140.4 725.6 1150.9 731 1159.8C738.2 1171.6 746.1 1178.9 757.1 1187.1C773.4 1199.3 792.2 1209.5 811.2 1216.9C831.4 1224.8 848.4 1223.2 849.3 1249.2C850 1268.5 834.6 1286.2 837.7 1304.9C841.1 1325.1 864.3 1330.6 880.9 1327.2C897.5 1323.7 912.3 1316.7 929.8 1315.4C951 1313.8 965.6 1320.2 985.5 1326.8C1006.3 1333.7 1024.5 1335.6 1045.9 1337.9C1071.2 1340.6 1084.4 1357.6 1104.7 1370.2C1122 1381 1147.6 1392.1 1172.8 1388.2C1181 1386.9 1215.6 1388.6 1224.6 1394.6C1227.9 1396.8 1230.7 1399.5 1233.8 1401.9C1236.7 1404.1 1239.9 1405.9 1242.6 1408.5C1245.3 1411.1 1248.7 1414.4 1248.7 1418.2C1248.8 1421.7 1248.7 1425.2 1248.7 1428.7C1248.7 1433.9 1247.5 1439 1248.1 1444.2C1249.1 1452.2 1250.9 1460.2 1252 1468.2C1252.9 1474.2 1254 1480.1 1255.4 1486C1257.5 1494.6 1257.9 1503.2 1259.2 1512C1261.3 1526.3 1267.2 1541.8 1275.2 1554C1279.4 1560.4 1285.8 1565.6 1291.2 1571C1294.3 1574.2 1323.8 1591.4 1328.3 1600.5" stroke="#788675" stroke-miterlimit="10" stroke-linecap="round"/>
<path d="M129.4 0.799976C140.8 24.5 144.6 19.1 181.9 37.4C191 41.8 200.3 44.3 209.5 48C219.6 52 222.4 57.5 230.7 63.8C245.7 75.1 258.3 73.1 267.8 93.5C277.6 114.5 278.3 129.4 300.9 141C321.3 151.5 338.4 155.4 353.9 172.8C368.2 188.8 387.3 201.6 399.8 219C413.4 237.9 418.6 254.2 445.8 248C485.8 238.9 499.6 195.4 524.4 166.1C550.3 135.5 575.4 103.7 602.5 73.6C614.7 60.1 627.3 45.3 644.5 38.2C669.7 27.8 687.6 25.4 707 4.09998C707.6 3.49998 709.7 1.29998 710.2 0.599976" stroke="#788675" stroke-miterlimit="10" stroke-linecap="round"/>
<path d="M1049.4 1599.9C1049.4 1599.9 1058.2 1584.6 1065.7 1582.3C1073.1 1580 1071.4 1600.2 1071.4 1600.2" stroke="#788675" stroke-miterlimit="10" stroke-linecap="round"/>
<path d="M12.6001 0.799988C20.7001 9.49999 34.0001 31 44.7001 37.3C55.4001 43.5 69.2001 43.7 81.2001 46C102 50 133.4 53.3 151.1 66.1C157.4 70.7 162.9 80.3 168.4 85.9C179.3 96.8 191.2 105.5 204 114.1C221.2 125.7 234.3 138 248.1 153.1C264.2 170.7 282.5 185.9 299.6 203.1C316.6 220.2 331.4 237.9 350.5 252.8C371 268.9 372.4 282.5 381.9 305.1C387.6 318.8 400.8 333.8 410.4 345.3C424 361.6 443.1 358.9 454.1 341.5C465.4 323.8 476.4 311.6 490.9 296.1C510.4 275.4 524.9 249.2 540.4 225.5C565.8 186.5 586.7 147 625.6 119.2C659.5 94.9 694.2 68.1 730.4 47.3C743.9 39.5 759.8 36.4 775 33.9C801.6 29.5 796.6 36.5 798.7 59.9C800.6 80.5 815.6 93.7 821.1 113.2C827.8 137.3 815.8 147.9 809.7 170.1C802.9 194.7 801.4 191.6 778.2 200.9C758.7 208.8 745 222.4 730.8 237.7C715.5 254.2 697.7 256.9 678.2 266.1C659.9 274.8 640.5 289.3 625.9 303.5C588.2 340 587.1 379.2 607 425C615.3 444.2 632.4 449.6 649.2 460.6C668.8 473.4 687.3 483.8 708.7 493.4C724.6 500.5 752 510.4 759.7 527.4C766.7 542.9 756.4 551.6 751.6 566.2C746.3 582.1 752 599.3 745 614.9C734.6 638.2 707 643.5 695.3 665.4C687.6 679.8 690.9 696.8 685.3 712.4C677.8 733.4 662.6 745 658.1 768C649.2 813.3 663.8 860.9 661.5 906.9C660.6 925 658.4 943 644.9 954.5C636.9 961.3 635.7 958.9 631.7 968.7C626.9 980.6 628.2 985.9 616.2 993.5C598.2 1005 580.6 1001 560.6 1003.6C538.2 1006.5 518.9 1022.2 506.9 1041.1C481.4 1081.4 491.2 1131.3 505 1173.8C510.1 1189.4 516.9 1209 533.1 1216.6C551.7 1225.3 570.8 1212.5 588.3 1208.5C609.1 1203.7 635.3 1213.1 655.2 1219.4C665 1222.5 668.6 1224.8 675.7 1230.6C686.9 1239.7 691.3 1244.9 704.9 1251C724.4 1259.7 740.5 1276.4 740.4 1298.8C740.3 1313.4 738.9 1333 740.4 1344C742.9 1362.5 744.5 1378.7 759.2 1392.1C773.1 1404.7 795.6 1401.5 813.1 1399.2C831.6 1396.8 845.1 1384.8 862.1 1379.2C882 1372.6 906.6 1371.2 927.4 1367.9C946.9 1364.8 967.1 1363.2 985.3 1372.2C1004.7 1381.7 1018.7 1392.3 1040.2 1398.9C1060.1 1404.9 1070.7 1411.4 1077.5 1431.7C1083.7 1450.3 1085.8 1470.4 1099 1485.5C1111 1499.1 1120.6 1515.8 1139.4 1517.3C1142.9 1517.6 1150.6 1518.8 1152.7 1514.9C1155.4 1509.8 1150.9 1507.3 1147.9 1504.2C1144 1500.3 1141.6 1497.8 1139.9 1492.2C1137.4 1484.4 1132.9 1481.3 1128.2 1475.2C1122.7 1468.2 1121.1 1459.4 1120.1 1450.8C1118.6 1436.9 1115.5 1422.6 1109.2 1410C1109.2 1410 1107.9 1406.8 1106.3 1404.9C1104.7 1403 1101.2 1399.6 1101.2 1399.6L1095.7 1394C1095.7 1394 1091.8 1390.1 1089.2 1389.3" stroke="#788675" stroke-miterlimit="10" stroke-linecap="round"/>
<path d="M1.19995 60.1C13.6 65.4 35.4999 66.7 47.7999 72.2C59.2999 77.4 68.9 86.2 79.3 93.1C94.1 102.9 108.6 103.9 125 108.7C152.6 116.7 159.2 144.4 178.4 162.8C200.2 183.7 218.2 198.5 234.4 224.2C247.3 244.6 259.9 258.4 280.5 270.5C303 283.7 321 303.1 331.9 327C343.5 352.6 340.9 380.3 341.7 407.5C342.3 429.2 349.7 425.8 372.3 422.9C398 419.6 415.6 405.5 437.7 393.6C449.3 387.4 462.5 381.8 472.9 373.7C472.9 373.7 502.9 348.5 519.6 340.1C536.3 331.8 553 283.9 563.1 265.7C573.3 247.5 648.1 152.2 648.1 152.2C648.1 152.2 745.2 114.9 765.3 121.4C785.5 127.9 780.8 147.3 752.1 152C723.4 156.6 717.8 146.4 692.8 178.9C667.8 211.3 686.3 235.6 657.6 242.9C628.9 250.2 616.2 243.7 605.4 256.7C594.6 269.7 546.1 355.5 544 386.2C543.1 398.4 543.2 413.1 548.3 424.2C553.7 436.2 567 440.7 575.9 449.9C594.1 468.8 598.1 487.9 624.7 498.2C648.6 507.5 674 509.2 694 527C739.4 567.5 678.1 611.5 662.3 649.6C653.5 670.9 645 691 634.2 711.1C621 735.7 592.7 738.2 577.2 759.4C564.3 777.1 557.5 800.1 561.6 821.5C568.1 854.9 550.7 874.2 551.3 905.6C551.8 931.5 543.6 947.6 515 956C494.9 961.9 485.6 970.5 470.5 984.9C454.1 1000.5 428.3 1017.3 422 1040.6C420.3 1046.8 422.8 1060.8 423.7 1066.4C426.1 1081.4 426.5 1083.9 420.2 1098.5C410.9 1120.2 414.9 1142.5 420 1165C426.1 1192 436.9 1207.7 462.9 1219.7C485.6 1230.1 505.9 1239.6 530.5 1245.2C554.9 1250.7 584.1 1254.7 607.1 1264.8C617.6 1269.4 625 1278.1 634 1284C641.1 1288.6 643 1288.5 650.5 1291.6C655.1 1293.5 658.8 1291.2 661.6 1296C665.8 1303.2 658.9 1314 657 1321.1C653.3 1334.9 648.6 1353.6 653.7 1367.7C661.6 1389.6 681.2 1412.7 699.4 1427C727.3 1448.9 753.1 1451.8 787.6 1448C801.4 1446.5 814.6 1447.6 827.4 1441.6C841.8 1434.7 853.4 1427.7 869.6 1424.9C883.3 1422.5 890.2 1422.1 900.2 1428.3C904 1430.6 905.3 1434.3 910.4 1436.4C917.4 1439.3 927.9 1438.5 935.4 1438.8C960.7 1439.9 993.4 1439.5 1014.5 1455.2C1038.3 1472.8 1044.2 1502.5 1065.2 1522.2C1076.3 1532.6 1091.5 1541.5 1097.2 1556.5C1102.2 1569.8 1099.8 1584 1094.5 1600.4" stroke="#788675" stroke-miterlimit="10" stroke-linecap="round"/>
<path d="M1.19995 157.5C16.1 167.6 43 170.1 53 172.9C68.8 177.3 84.2 182.3 100.4 185.2C114.4 187.8 127.5 188.6 138.7 198.8C172.9 229.8 207.8 261.8 241.6 294.4C258.8 310.9 278.2 329 286.7 351.8C293.6 370.4 289.1 390.8 293.8 409.5C295 414.4 299.3 419.9 300.3 424.3C302 432 300.2 439.9 300.3 447.9C300.8 505.5 441.2 425.5 462.7 418C470.2 415.4 482.1 414 488.7 420.5C495.2 426.9 489.3 437.8 493.6 445.8C506.1 469.2 539.8 459.1 556.7 473.9C569.7 485.3 563.3 502.4 581 512.7C600.4 523.9 623 523.1 636.6 544.3C662.5 584.4 614.5 640.4 599.2 675.3C589 698.5 579.1 709.8 559.6 726.1C538.3 743.8 538.3 767.7 525.1 790.7C518.9 801.6 490.4 828 495.9 842.1C498.9 849.8 506.3 845.3 510.3 851C517.4 861.1 503.5 878.5 498.8 885.5C486.4 903.6 476.7 924.3 459.7 938C437.5 955.9 415 970.5 397.7 993.8C382.1 1014.6 371.8 1034.4 369.2 1060.5C366.3 1089.3 363.7 1121.5 364.4 1150.5C365.1 1180.4 388.4 1221.4 411.4 1240.3C427 1253 445.5 1265.6 462 1277.3C482.6 1292 505.3 1298.8 524.8 1315.2C544.6 1331.8 558.1 1335.5 568.9 1360.3C579.3 1384.2 601.7 1397.4 614.7 1420.1C639.8 1463.7 679.5 1491 730.9 1495.3C754.1 1497.2 781.3 1497.9 803.4 1492C815.9 1488.7 831.4 1483.8 842.9 1477.3C848.4 1474.2 855.4 1466.2 862.9 1467.6C872.8 1469.5 873 1482 882.9 1484.8C894.2 1488 912.1 1483.9 923.9 1484.7C952.4 1486.4 973.9 1491.9 996.4 1509.5C1007.1 1517.8 1011.1 1529.6 1019.8 1539.3C1028.5 1549 1040.2 1553.9 1049.1 1563.6C1063.1 1579 1027.2 1575.6 1017.5 1600" stroke="#788675" stroke-miterlimit="10" stroke-linecap="round"/>
<path d="M955.3 1600.1C979.3 1575.2 1016.1 1587 997.2 1565.7C988.9 1556.3 982.9 1550.1 976.4 1539.1C967.4 1523.9 955.9 1516.7 938.1 1512.3C920 1507.9 899.9 1512.5 881.4 1510C872.6 1508.8 865.2 1503.8 857 1502.7C843.7 1500.9 836.2 1512.8 824.3 1517.1C815.7 1520.2 805 1521 796.1 1521.1C766.7 1521.5 734.5 1516.8 705.3 1513.6C680.5 1510.9 655.6 1501.2 632.8 1491.6C616 1484.5 598.1 1476.9 583.3 1466C570.2 1456.4 559.8 1441.7 544 1436.1C525.7 1429.6 489 1437.3 476.1 1421.2C470.9 1414.7 474.1 1399.9 473.3 1392.6C472.6 1386 469.9 1378.4 469.9 1371.8C469.9 1360.7 483.8 1346.5 476.6 1336.3C474.9 1333.9 468.9 1333.6 466.9 1332.5C458.9 1327.9 457.3 1328.6 451.2 1321C444.3 1312.4 439.4 1301.9 432.2 1293.6C412.1 1270.6 386.4 1252.6 361.7 1235.1C347.4 1225 334.3 1221.1 326 1204.6C319.6 1191.7 318.7 1179.7 318.7 1165.4C318.7 1136 326.7 1109.3 329.7 1080.6C330.9 1068.5 336.1 1058.2 338.1 1046.7C339.7 1037.7 337.8 1032.4 339.6 1023.9C344.9 999.3 367.9 974.1 382.6 954.5C398.7 933.1 422.2 916.5 436.6 894C441.1 886.9 445.5 877.2 442.6 868.4C440.7 862.5 434 861 432.6 856.5C429 845.3 435.8 839.9 444.2 832.8C458.2 820.8 462.9 811.5 466.3 792.9C468 783.5 472.2 774.7 474.3 765.5C477.3 752.1 477.5 746.9 490.6 740.9C500.5 736.3 510.7 732.2 520.5 727.6C539 718.8 542.8 705.8 554.4 689.8C578.6 656.3 593 616.6 585.2 574.7C579.9 546 552.6 503.6 523.3 493.4C503.1 486.4 484.9 491.4 466.5 477.1C453 466.6 447.5 461.9 428.8 461.8C388.3 461.5 357.6 489 318.8 490.6C306.2 491.1 292 493.9 283.3 483.7C272.1 470.4 280.5 450.3 276.5 435.1C272.9 421.3 262.4 412.3 258.8 398.3C257 391 254.9 381.6 250.2 373C242.2 358.5 233.4 340.9 224.2 327.4C215.6 314.7 199.9 303.1 189.4 291.4C165.6 265 141 235.6 104.9 225.7C76.2 217.8 31 217.3 1.19995 210.6" stroke="#788675" stroke-miterlimit="10" stroke-linecap="round"/>
<path d="M1.19995 313.5C13.1 322.6 42.5999 354.6 56.2999 363.3C66.9999 370.1 78.1 372.2 89.9 376.6C108.2 383.5 116.3 395.7 129.5 409.1C146.1 426.1 165.9 442.9 185.7 455.9C197.2 463.5 209.8 465.7 218.6 476.6C228.1 488.3 232.1 500.8 244.8 510.1C271.6 529.7 299.7 525.8 330.2 530.5C360.2 535.1 388.2 537.8 418.5 539.9C429.2 540.6 434.7 538.3 442.4 546.5C448.8 553.3 459.7 568.7 464.2 577.2C474.8 597.5 472.5 619 463.8 639C459.1 649.6 453.5 659.7 449.5 670.7C444.7 683.9 448 701.4 441.9 713.4C437.5 722 425.1 729.8 418.7 737.6C408.8 749.7 396.6 759 386.5 770.7C373.5 785.7 354.1 812.5 352.1 827.7C350.5 840 357.1 851.6 347.8 861.2C339.2 870 319.3 869.2 308.3 871.6C285.9 876.4 188.5 951.7 222 980.2C234.6 990.9 284.1 965.3 271.1 998.8C266.4 1010.8 256.2 1022.2 248.2 1032C237.7 1044.8 231.2 1058.8 223.2 1073.2C208.3 1099.8 204 1135.8 180.7 1155.9C176.7 1159.4 171.7 1161.1 168.1 1165.3C161.7 1172.9 163.4 1178.7 154.3 1185.1C149.6 1188.4 134.7 1196 128 1195.7C107.6 1194.6 105 1174.5 98 1160.9C93.6 1152.4 85.5 1146.2 78.3 1139.1C66.3 1127.2 52.4 1120.3 39.7 1109.8C34.6 1105.6 31.0999 1098.8 25.4 1095.5C16.5 1090.3 11.1 1091.1 1.19995 1091.2" stroke="#788675" stroke-miterlimit="10" stroke-linecap="round"/>
<path d="M1.19995 270C21 269.8 86.8 262.8 105.2 270.4C120.4 276.7 115.7 290.1 121.8 302.9C130.9 322.1 149.1 323.4 164.6 335.4C181.3 348.3 187.4 365.4 201.5 379.8C216.2 394.8 226.8 412.6 240.8 428.1C264.8 454.6 253.3 506.6 296 511C317.8 513.3 338.8 509.1 360.3 506.4C369.3 505.2 378.5 505.4 387.5 504.3C401.8 502.6 448.4 496.3 448.4 496.3C448.4 496.3 457.4 509.1 466.5 519C481.6 535.5 511.2 531.1 520.5 551.4C523.7 558.4 521.5 564.2 522.7 571C523.9 578 528.1 584.7 529.5 591.9C531.7 603.1 531.7 600.5 526.9 610.2C520.8 622.4 519.1 631.8 516.5 645.2C508.4 687.6 480.9 715 454.3 746.9C439.5 764.7 422.1 782.9 414.4 805.2C410.7 816.1 409 822.5 401.6 831.7C393.5 841.7 387.3 846.8 386.3 860.3C384.7 881.9 397.7 890.4 381.1 909.4C376.5 914.6 311.1 994 300.7 1012.1C286.7 1036.6 276.8 1063.5 270.9 1090.7C264.9 1118.5 255.5 1141.8 252.5 1170.6C249.7 1197.3 223.2 1209 239.2 1236.9C249.5 1254.9 275.4 1263.8 293.9 1272.1C314.5 1281.3 335.1 1282.6 355.4 1293.5C374.7 1303.9 390.8 1318 406.1 1333.5C414.1 1341.6 423.1 1346.9 424.1 1358.7C424.6 1365.4 421.6 1371.7 422.5 1378.6C425.6 1400 437.4 1419.2 446.9 1438C457.3 1458.6 469.8 1465.9 493.4 1469.4C516.9 1472.8 540.7 1470.1 562.1 1482.5C581.9 1493.9 600.2 1502.3 621.1 1511.7C641.7 1520.9 664.5 1531.6 686.5 1536.9C686.5 1536.9 719.4 1543 706 1560.3C701.5 1566.2 662.3 1559.4 642.9 1555.4C618.6 1550.5 598.8 1539.2 577.2 1527.9C557.3 1517.5 540.2 1515.9 518 1516.3C477 1517.1 433.7 1468.2 414.2 1526.8C398.4 1574.1 337.4 1570.5 296.7 1557.7C273.5 1550.5 252.1 1534.5 236.4 1516.1C227.3 1505.4 225.9 1498.6 224 1485.2C223.2 1479.6 224.2 1469.8 221 1464.7C211 1449.1 182.5 1449.4 166.9 1446C148.8 1442 126.4 1439 110.7 1428.1C91.8 1414.9 101.7 1390.6 86.4 1375.6C71.6 1361.2 61.7999 1378.5 53.0999 1390.4C34.2999 1416.1 38.1 1454.2 1.29995 1459.5" stroke="#788675" stroke-miterlimit="10" stroke-linecap="round"/>
<path d="M331.1 716.3C326.9 690.7 311.4 680.6 307.7 672.4C303.2 662.3 308.8 651 306.7 640.8C301.7 617.2 270.5 607.9 260.9 585.3C253.6 567.9 250.1 549.5 229.2 543.9C217.6 540.8 210.8 541.5 201.2 532.5C190.1 522.3 192.6 516 188 503.3C180.3 481.8 151.9 479.8 135.5 465.5C118.9 451 103.9 429.4 81 428.9C65.2 428.6 27.9 423.4 1.30005 404" stroke="#788675" stroke-miterlimit="10" stroke-linecap="round"/>
<path d="M1.19995 470.3C15.7 480.4 53.6 493 71.8 493C86.7 493 103.1 486.4 117.6 490.6C135.8 495.9 124.5 504.9 128.1 520.1C132.4 538.4 151.5 535.3 165.6 544.2C182.8 555 186 573.2 187.1 592.2C188.1 608.7 188.5 622.2 196.7 636.8C200.1 642.9 206 648.2 208.2 654.9C211.6 665.3 206.5 670.7 205.6 680.9C204 698.9 219.6 710.1 208.8 727.5C199 743.4 195.8 748 194.7 768C192.7 806.4 139.1 809.4 112.8 829.3C99.6 839.3 79.5 851.1 73.2 867.2C67.8 880.9 68 900.3 65.3 915C61.8 933.9 63.0999 951.1 42.5999 959.1C29.3999 964.2 10.4 952.1 1.29995 963.6" stroke="#788675" stroke-miterlimit="10" stroke-linecap="round"/>
<path d="M1.19995 910.8C22.1 907.2 19.7 867.5 27 852C37.2 830.5 44 802.9 38 779C34.6 765.5 28.2 753.3 35.9 739.6C43.9 725.5 57.8 729.7 68.3 721.2C76.3 714.7 74.2 702.6 82.5 697.3C95.3 689.2 103.6 701.4 107.5 682.3C109.6 671.9 106.3 663.3 110.4 652.7C115.8 639 127 628.5 133.4 615.4C138.6 604.8 145.5 580 142.6 568C139.4 554.4 131.2 554.9 118.4 553.9C106.6 552.9 93 554.3 81.6 551.9C63.7 548.1 65.2 536.3 53.2 525.8C42.9 516.8 13.3 512.9 1.19995 508.7" stroke="#788675" stroke-miterlimit="10" stroke-linecap="round"/>
<path d="M1.19995 560.9C11 565.4 28.5 574.6 38.5 578.5C47.1 581.9 66.6 584.1 73 592C86.6 609 64.4999 633.2 64.0999 650.5C63.8999 661 68.6999 666.1 61.2999 676.2C55.9999 683.4 45.4 688.7 38.7 694C30 700.8 24.7 706.9 18.4 716C15.6999 719.9 1.49995 735.1 1.39995 738.3" stroke="#788675" stroke-miterlimit="10" stroke-linecap="round"/>
<path d="M459 1600.1C468.7 1593.8 478.2 1587.8 490.1 1584C506.9 1578.8 524.7 1570.3 541.9 1567.9C561.7 1565.2 582.7 1571.3 601 1578.2C637.1 1591.8 671.8 1596.1 710.3 1600" stroke="#788675" stroke-miterlimit="10" stroke-linecap="round"/>
<path d="M1.19995 1527.2C15.3 1527.4 16.4 1515.2 25 1504.6C35.5 1491.5 34.3 1474.4 46.7 1461.7C58.1 1450.1 72.1 1447.6 87.4 1454.9C100.6 1461.2 99.5 1473.1 108.9 1483.1C119.4 1494.2 136.1 1492.4 149.6 1497.4C168.4 1504.4 168.1 1512.8 173.3 1530C183 1562.7 310.3 1574.7 328.4 1600.2" stroke="#788675" stroke-miterlimit="10" stroke-linecap="round"/>
<path d="M221.3 0.799988C223.8 4.89999 225.4 20.8 252.5 39.3C261.9 45.7 267.6 47.7 277.4 53.5C282.1 56.3 286.9 59.1 291.5 62.1C296.9 65.7 301.2 70.8 305.6 75.6C310.4 80.8 314.6 86.2 320.1 90.7C324.7 94.5 329.4 98.2 334.1 101.9C337.3 104.4 340.5 106.7 343.6 109.2C349.7 113.9 354.1 120.6 358.8 126.6C366.3 136.3 376.3 145.5 386.8 151.9C396.3 157.7 406.7 158 417.2 155.7C422.4 154.6 427.1 151.4 432.2 149.6C441.1 146.6 450.8 150.9 459.2 153.8C462.2 154.8 464 155.2 467.1 155.2C468.6 155.2 469.6 155.6 470.9 154.7C473 153.3 474.3 150.4 476.4 148.8C481.2 145.2 487.8 144.6 492.9 141.3C500.9 136 505.2 129 506.3 119.6C507.7 108 510.2 95.6 519.3 87.4C521.7 85.3 522.6 84.7 525.7 84.7C528 84.7 529.9 85.5 532.1 85.6C537.4 85.9 541.9 84.7 546.7 82.8C554.2 79.9 562.5 77.8 569.2 73.1C572.1 71 574.3 68.6 575.4 65.2C576.3 62.6 575.1 58.7 576.9 56.7C578.4 55 581.9 54.1 583.8 53.1C588 51 592.2 48.8 596.2 46.6C599.7 44.7 603.1 43.6 606.4 41.8C607.2 41.3 608.2 41.1 609 40.6C609.6 40.3 610.2 39.5 610.8 39.2C612.7 38.3 614.6 38.7 616.1 36.8C619 33.2 617.1 27.4 614.6 24.1C611.4 19.9 607.2 20 602.3 20.2C582.4 20.7 562.3 26.4 543.4 32.1C528.2 36.7 512.9 41.5 497.8 46.5C491.3 48.6 484.8 50.6 478.6 53.4C473.2 55.8 468.2 58.7 466.3 64.7C464.9 69.1 463.9 73.4 462.4 77.8C459 87.8 452 95.6 443.3 101.7C436.7 106.3 429.2 109.8 421.3 111.5C417.2 112.3 412.4 113.1 408.4 111.3C406.7 110.6 405.9 109.5 404.7 108.2C401.6 104.7 399.7 99.7 397 95.8C393.7 91 388.9 86.3 387.4 80.5C386.4 76.4 387.3 72 387.2 67.8C387.1 64.9 386.2 62.2 386.2 59.2C386.2 56.8 386 54.3 386.2 51.9C386.4 49.8 387.1 48 387.2 45.9C387.4 39.5 387.9 33 384.9 27.1C379.5 16.3 342.9 23.1 328.1 0.899988" stroke="#788675" stroke-miterlimit="10" stroke-linecap="round"/>
<path d="M955.3 0.799988C940.8 22.1 920 36.4 919.4 65C919.2 76.3 925.4 86.7 925.8 98C926.2 111.3 926 124.6 920.8 137C916.5 147.1 914.4 157.6 910.3 167.8C904.5 182.5 898.9 196.7 889.6 209.7C884 217.5 877.1 225.5 870.4 232.5C863.2 240.1 853.6 245.3 845.8 252.3C837.8 259.4 832.3 268.3 825.7 276.6C818.7 285.5 811.7 294.4 804.8 303.4C795.2 315.9 788.2 329.9 777.9 341.9C771.1 349.8 764.7 357.8 758.1 365.8C751.9 373.3 743.4 381.9 740.6 391.3C739.6 394.8 740.1 398.2 739.4 401.8C738.6 406.1 737.5 409.9 738.5 414.3C742.6 432.8 756.7 445.7 769.7 458.5C776.7 465.4 782 473.7 788.4 481.2C795.7 489.6 804.4 496.3 812.1 504.1C817.7 509.8 822.8 514.7 829.7 518.8C835.5 522.2 850.1 527.1 864.3 523.9C879.3 520.5 893.7 508.8 893.7 508.8C898.8 499.8 914.8 493.8 919.2 484.4C921.6 479.4 924.3 474.9 927.6 470.4C932.9 463 936.4 454.6 938.2 445.8C940.8 433.7 941.6 421.3 944.6 409.4C945.9 404.5 946.3 399 949.5 394.9C954.2 389 960.7 385.6 966.5 381C976.2 373.2 985.3 364.6 994.6 356.2C1001.4 350 1008.2 345.8 1017 343C1021.9 341.5 1026.8 340.6 1030.2 344.8C1036.7 353 1035.8 366.4 1033.8 375.9C1032.7 381.2 1030.8 386 1027.7 390.5C1023.3 397.1 1017.2 405.7 1011.1 410.8C1000.2 419.7 988.7 426.6 982 439.4C978.2 446.5 975.7 454.1 972.8 461.6C971.1 466 969 470 966.8 474.1C962.7 481.6 961.1 489.7 958 497.6C954.1 507.3 948.5 517.8 944.3 527.9C941.3 535.1 937.3 542.1 935 549.6C930.2 565.3 924 571.7 913.1 584C907.9 589.9 902.6 595.5 897.1 601.2C890.9 607.6 887 615.9 881.2 622.7C874.2 630.9 866 637 860.2 646.2C856.7 651.7 853.1 657.2 849.9 662.8C846.1 669.5 843.5 676.8 839.7 683.5C834.1 693.5 826.8 702.4 822.4 712.9C819.5 719.8 817.3 727 814.6 734C812.1 740.5 811.4 746.7 807.8 752.8C806.4 755.2 804.5 757.1 803.1 759.5C799.1 766.6 796.4 775.3 793.4 782.8C789.8 792.1 785.3 801.9 783.1 811.6C781.6 818 781 824.6 779.8 831C777.3 844.1 775.1 857.3 772.7 870.4C769.5 887.4 766 904.5 761.7 921.3C758.7 933 753.8 944 750.4 955.6C749.5 958.7 748.5 961.8 747.3 964.8C745.7 968.8 745.6 972.9 745 977.2C744.3 982.3 743.7 987.5 743 992.7C742.1 999.6 743.1 1006.6 742.3 1013.5C741.1 1023.9 741.5 1034 740.8 1044.4C740.1 1054.8 739.5 1065.1 739.6 1075.5C739.7 1093.5 737.4 1112.6 743 1129.9C744.4 1134.3 748.2 1136.9 751.8 1139.5C755.6 1142.2 759.7 1145.6 764 1147.6C769.4 1150.1 771.2 1151.6 775.2 1155.9C779.4 1160.6 785.7 1163.9 790.5 1168.2C797.5 1174.5 804.5 1180.5 812 1186.4C821.2 1193.6 831.3 1198.2 842.1 1202.1C846.4 1203.7 850.5 1205.4 854.8 1207C854.7 1207 864.3 1210.3 864.3 1210.3C864.3 1210.3 867.2 1219.9 867.8 1223C869.2 1229.8 867.2 1236.9 868.9 1243.7C870.3 1249.5 872.2 1255.2 874.4 1260.6C876.7 1266.2 880.1 1272.6 880.6 1278.5C880.9 1281.5 881.8 1286.5 884.6 1288.4C886.5 1289.7 887.9 1289.1 890.1 1289.2C894.9 1289.5 899.3 1290.9 904.3 1290.8C909.7 1290.7 915.9 1291.6 921.2 1292.7C924.3 1293.3 927.8 1294.2 930.9 1295C934.2 1295.9 937.4 1296.2 940.7 1296.9C947.8 1298.4 955 1300.8 961.9 1303.1C970.6 1306 978.8 1307.4 987.5 1309.3C992.9 1310.5 998 1312.6 1003.4 1314.3C1007.5 1315.6 1011.6 1316.8 1015.8 1317.9C1022.6 1319.7 1028.9 1320.1 1036 1320C1041.5 1320 1047 1320.1 1052.5 1320C1056.9 1319.9 1059.7 1322.4 1063.8 1324.2C1071.3 1327.4 1078.5 1331.3 1085.8 1334.9C1088.8 1336.4 1092.2 1336.9 1095.2 1338.5C1098.7 1340.4 1100.5 1344 1103.5 1346.5C1107.4 1349.8 1110.8 1352.6 1115.5 1354.7C1121.9 1357.6 1127.5 1361.6 1133.7 1364.9C1139.3 1367.9 1144.5 1371.9 1150.3 1374.4C1154.5 1376.2 1156.7 1375.5 1161 1374.6C1165.8 1373.6 1169.8 1372.6 1174.7 1372.7C1182.1 1372.7 1189.5 1372.7 1196.9 1372.7C1206 1372.7 1214.9 1372.4 1223.8 1373.9C1226.4 1374.3 1229.1 1373.8 1231.4 1374.9C1234.2 1376.2 1237.2 1379.5 1239.2 1381.7C1244 1386.9 1249.1 1391.7 1254.5 1396.4C1257.3 1398.8 1257.8 1399 1258.8 1402.2C1260 1405.9 1259.5 1409.9 1260.8 1413.5C1262.2 1417.2 1264.3 1420.5 1265.4 1424.4C1267.8 1432.9 1270.4 1442.2 1275.8 1449.3C1281.8 1457.3 1288.1 1465.8 1292.6 1474.8C1295 1479.5 1297.7 1483.6 1298.9 1488.8C1298.9 1488.8 1304.5 1504.4 1330.2 1531.7C1355.9 1559 1409.2 1564.5 1400.5 1599.4" stroke="#788675" stroke-miterlimit="10" stroke-linecap="round"/>
<path d="M1431.7 1600.1C1430.7 1598.3 1430.3 1553.5 1358.8 1501.8C1350.1 1495.5 1346.4 1484.7 1342 1474.9C1340.7 1472.1 1338.7 1470.4 1337 1468C1335.6 1465.9 1334.6 1463.4 1333.5 1461.1C1331.7 1457.5 1330.3 1454 1327.8 1450.8C1325.2 1447.5 1322.2 1444.6 1319.8 1441C1317 1437 1313.2 1432.6 1309.4 1429.6C1308.2 1428.7 1306.8 1428.2 1305.6 1427.3C1300.2 1423.3 1296.6 1416 1293 1410.5C1284.4 1397.4 1276.3 1384.1 1266.7 1371.6C1261.2 1364.5 1254.7 1359.3 1246.5 1355.6C1238.6 1352 1229.5 1350.4 1221.1 1348.2C1213 1346.1 1204.7 1345.5 1196.4 1344.7C1186.7 1343.9 1176.7 1344.4 1167 1344.4C1146.4 1344.5 1127.1 1341.9 1108.5 1330.8C1100.9 1326.3 1093.8 1321.6 1085.1 1319.7C1077.7 1318.1 1071.1 1314.7 1063.9 1312.6C1058.5 1311 1053 1310 1047.5 1309C1043.5 1308.3 1038.9 1308.2 1035 1307.1C1030.9 1306 1027.1 1304.2 1022.8 1303.7C1020.5 1303.4 1018.6 1302.8 1016.4 1302C1009.4 1299.4 1002.4 1297.1 995.2 1295C986.2 1292.3 977.6 1289.1 968.9 1285.7C962.2 1283.1 955.6 1280.4 949.8 1276C944 1271.6 939 1266.3 933.1 1261.9C930.9 1260.2 928.5 1258.9 927.1 1256.4C925.5 1253.7 924.5 1250.4 923.1 1247.6C917.7 1237.1 908.8 1229.6 899.5 1222.5C891.2 1216.2 883.8 1209.7 876.3 1202.4C870.9 1197.2 866 1191.7 860.8 1186.3C853 1178.1 843.7 1172.2 834.9 1165.3C832.5 1163.4 830.6 1162 828.6 1159.5C825.5 1155.4 822.2 1151.6 819.3 1147.4C815.7 1142.3 814.5 1136.9 812.1 1131.2C809.9 1125.8 807.6 1120.5 805.5 1115.1C804 1111.1 801.1 1108 799.7 1104.1C788.9 1074.8 791.2 1031.6 799.7 1002.1C808.2 972.4 824.8 945.7 833.6 915.8C836.8 905 840.6 894.6 843.1 883.6C844.2 878.8 846 874.3 846.1 869.4C846.2 865.7 846 862 846 858.3C846 850 846 841.6 846 833.3C846 824.1 847.3 815.2 847.2 806C847.1 793.7 846 780.6 847.5 768.4C850 747.3 853.5 726.3 858.4 705.6C862.5 688.5 865.8 662.6 879.9 650.3C883.1 647.5 887 645.3 890.4 642.7C926.5 614.9 945.6 579 963.9 538.7C966.4 533.3 968.9 528.2 971.9 523.1C975.8 516.6 978.5 509.6 981.2 502.5C984.2 494.8 986.4 488.5 992.2 482.7C1017.8 457.1 1037.6 423.3 1048.6 388.9C1050.2 383.9 1049.7 379.1 1049.7 373.7C1049.6 364.3 1051.8 355 1049.6 345.7C1047.5 336.7 1036.1 331.6 1027.5 331.5C1022.5 331.5 1017.7 332.6 1012.7 332.7C1007.4 332.8 1002.4 334.8 997.2 335.3C991 335.8 985.9 338.4 979.9 340.3C970.7 343.3 964 350 955.6 354.3C946.7 358.8 937.6 358.7 927.9 359.8C903 362.7 880.4 381.2 859.9 394.5C856 397 851.6 398.4 847.2 400C833.1 405.3 819.7 405.5 805 405.6C803.7 405.6 802.3 405.6 801.2 404.9C799.8 404 799.3 402.4 798.9 400.8C792 369.5 838.1 362.6 854.9 347.6C882.5 323 897.1 284 913.8 251.9C922.2 235.8 931.2 219.3 938.8 202.5C954.4 167.9 964.3 132.4 976.1 96.6C991.6 49.5 1005 47.7 1017.6 0.400024" stroke="#788675" stroke-miterlimit="10" stroke-linecap="round"/>
<path d="M1328.6 0.799988C1342.6 35.7 1301.8 82.2 1293.5 114.4C1285.7 144.8 1274.7 185.8 1290.6 215.7C1300.9 235.1 1306.4 254.6 1323.9 267.5C1349.2 286.2 1379.6 297.6 1382.4 332.1C1384.6 358.5 1379.9 392.2 1369 416.3C1346.7 465.8 1302.9 488.4 1264.4 522.8C1246.3 539 1243.2 561 1230.1 581.6C1217 602.2 1201.9 619.9 1191.3 642.4C1169.3 689.2 1173.6 753.9 1182.9 804C1194.7 867.3 1250.4 876.9 1306 885C1340.7 890 1373.8 900.7 1408.3 906.5C1439 911.7 1480.9 906.1 1508.5 920.4C1544.1 938.8 1569.5 999.6 1579.6 1035.9C1583.4 1049.5 1586.3 1064.1 1585.8 1078.2C1585.1 1099 1578.8 1119 1578.1 1140C1576.8 1183.5 1585.3 1225.2 1598.3 1266.5C1599 1268.6 1599.7 1270.8 1600.4 1272.9" stroke="#788675" stroke-miterlimit="10" stroke-linecap="round"/>
<path d="M1400.5 0.799988C1388.6 30.7 1373.1 101.8 1373 135.1C1373 152.7 1372.4 175.9 1379.5 192.2C1389.2 214.8 1413.8 237.2 1430.9 255.3C1465.5 292 1455.3 343.3 1455.3 391.1C1455.3 407.3 1458.3 427.1 1450 442C1433.3 472.1 1397.7 481.7 1369.5 495C1341.6 508.1 1317.5 527.9 1289.3 540.5C1270.4 549 1259 558.4 1247.2 575.2C1236.8 590 1216 615.5 1210.9 633C1197 680.9 1195 749.9 1222.5 792.9C1235.3 813 1261.1 820.5 1282.2 829.1C1315.4 842.7 1349 859.1 1384.1 867.3C1446.9 882 1536.1 877.1 1563.6 943.9C1568 954.5 1569.1 967.8 1574.3 977.7C1580.7 989.7 1591.4 996.3 1600.6 1004.8" stroke="#788675" stroke-miterlimit="10" stroke-linecap="round"/>
<path d="M1431.7 0.799988C1432.8 36 1423.7 35.7 1414.1 69.1C1408 90.3 1393.3 106.2 1386.4 126.2C1379.1 147.2 1395 179.3 1409 194.8C1417.4 204.1 1432.3 209.5 1442.3 217.6C1454.3 227.4 1461.9 238.9 1475.5 247.3C1500.3 262.7 1538.9 280.2 1556.6 304.2C1593.3 354.2 1566.8 423.4 1523.6 461C1481.9 497.3 1432.2 501.7 1383.5 521.4C1301.4 554.6 1229.3 588.1 1232.9 686.9C1233.6 706.1 1246 722.2 1252.9 740.1C1268 779.3 1295.5 808.4 1334.7 825.4C1365.5 838.8 1397.1 844.1 1430 850.3C1461.8 856.3 1540.1 855.4 1552.2 893.4C1557.2 909 1579.2 916.4 1587 931.6C1592.1 941.6 1589.9 954.1 1595.6 963.9C1596.9 966.1 1598.5 968.1 1600.4 969.9" stroke="#788675" stroke-miterlimit="10" stroke-linecap="round"/>
<path d="M1282.2 0.799988C1304.1 31.6 1281.3 78.4 1269.5 106.7C1247.2 160.2 1216.5 205.8 1240.7 264.5C1271.6 339.5 1310.4 407.1 1254.7 478C1229.4 510.2 1182.5 546.4 1169.2 585.2C1158.7 615.6 1170.2 654.6 1162.4 686.3C1154.5 718.6 1149 749.3 1150.7 782.9C1152 809.5 1144.3 855.9 1158.1 878.1C1170 897.4 1204.9 909.6 1224.5 916.5C1283.7 937.3 1344.4 963.1 1405.8 976.5C1405.8 976.6 1405.6 976.7 1405.6 976.8C1406.2 977.1 1410.4 977 1410 976.9C1444.7 978.5 1528.1 987.6 1524.9 1037.3C1524.8 1038.4 1524.5 1039.4 1524.4 1040.5C1524.4 1041.5 1524.6 1042.4 1524.3 1043.4C1524 1044.7 1523.5 1044.6 1522.4 1044.6C1521 1044.6 1520.1 1044.6 1518.6 1044.1C1513.9 1042.7 1509.5 1040.3 1504.8 1038.7C1496 1035.7 1486.9 1034.1 1477.8 1032.1C1460.3 1028.2 1443.2 1023.1 1426.2 1017.7C1418.1 1015.1 1410 1012.8 1401.8 1010.4C1367.8 1000.4 1333.7 991.6 1302.6 974.1C1297.7 971.3 1292.5 969.3 1287.7 966.2C1279.9 961.2 1270.7 957.2 1261.9 954.4C1256.1 952.5 1250.3 950.7 1244.4 949.1C1240.7 948.1 1237.1 946.7 1233.1 946.7C1231.3 946.7 1228.5 946.3 1228 948.7C1227.8 949.7 1228.4 950.8 1228.8 951.7C1230.2 954.8 1233 957.4 1235.2 959.9C1236.8 961.8 1238.5 963.4 1240.3 965.2C1243.5 968.3 1246.3 971.6 1249.5 974.7C1258 983 1268.1 989.8 1278.3 995.8C1291.7 1003.7 1306.5 1009.2 1319.7 1017.6C1324.5 1020.7 1328.6 1024.1 1332.9 1027.7C1358 1048.6 1389.9 1057.9 1416.2 1077.1C1435.4 1091.1 1447.9 1111.9 1465.8 1127.3C1469.3 1130.4 1472.8 1133.5 1476.7 1136C1488.5 1143.6 1500.9 1149.1 1511.9 1157.8C1512.9 1158.6 1512.9 1158.4 1513.9 1159.3C1514.7 1159.8 1516.1 1161.3 1516.1 1161.3C1516.1 1161.3 1518 1158.5 1518.4 1157.1C1519 1154.6 1518.9 1151.6 1518.7 1149.1C1517.4 1134.9 1509.2 1122.4 1500.8 1111.3C1493.1 1101.2 1481.7 1091.2 1479.1 1078.4C1478.8 1076.9 1478.6 1075.3 1479 1073.9C1481.3 1065.9 1496.7 1068.7 1502.5 1069.3C1505.1 1069.6 1507.8 1069.6 1510.4 1070.2C1511.9 1070.6 1513.3 1071 1514.7 1071.4C1518.4 1072.4 1521.9 1074.1 1525.5 1075.5C1529.4 1077 1533.4 1079 1537.4 1080C1539.8 1080.6 1542.4 1081.2 1544.9 1081.3C1546.4 1081.3 1547.5 1081.5 1549 1081.7C1550 1081.8 1550.4 1081.9 1551.2 1082.4C1551.9 1082.8 1553.9 1083.4 1554.6 1083.8C1573.1 1095.5 1584.1 1096.1 1584.1 1096.1" stroke="#788675" stroke-miterlimit="10" stroke-linecap="round"/>
<path d="M1600.5 1386.9C1575.8 1382.7 1542.2 1299.9 1531.7 1272.8C1523.9 1252.6 1522.1 1232.6 1508.5 1213.3C1491.3 1188.9 1468.8 1161.4 1443.9 1144.8C1423.9 1131.5 1403.1 1126.6 1382.4 1115C1361.5 1103.3 1344.6 1089.3 1326.2 1074.6C1285 1041.6 1237.7 1014.1 1198.9 978.6C1158.5 941.6 1121.8 894.6 1117.7 838.8C1113.1 775.7 1120.1 710.4 1120 646.6C1119.9 614.7 1118.8 581.1 1133.2 551.7C1144.4 528.9 1160.7 509.2 1170.6 485.3C1199.1 416.5 1222.4 356.2 1215.7 282.8C1212.6 249.5 1216.3 220.1 1222.2 187.6C1225.7 168.5 1231.5 154.2 1237.9 139.3C1245.7 121.1 1249.6 101.4 1249.3 81.6L1249.2 76C1249.1 72.3 1244 71.4 1242.7 74.8C1238.8 85.1 1233.7 98.4 1230.2 108.6C1223.4 127.9 1185.9 197.7 1182.8 253.4C1179.7 309.1 1167.9 337.8 1167.9 337.8C1167.9 337.8 1154.2 373.1 1155.8 297.9C1157.4 222.7 1148 210.7 1161 170.1C1174 129.5 1190.7 88.3 1189.6 64.4C1188.6 40.4 1187.1 0.799988 1187.1 0.799988" stroke="#788675" stroke-miterlimit="10" stroke-linecap="round"/>
<path d="M1049.4 0.5C1032.5 34.7 1028.4 54.1 1016.3 90.3C1003 130.1 981.5 170.3 974.4 212C970.2 236.9 968.5 269 994.4 281.1C1019 292.6 1042.5 298.4 1061.6 320.5C1080.1 342 1068.1 376.5 1061.2 401C1045.5 457.3 1008.8 499.6 982.7 550.6C953.2 608.2 928 667 903.1 727.1C892.4 753 887.4 780.2 885 808.1C880.5 860.3 877.7 912.8 872.8 965.2C870.2 992.6 869 1020 866.4 1047.4C864.6 1066.3 858.2 1086.8 861.3 1105.9C865.2 1129.7 880.1 1157.5 894.6 1176.8C928.3 1221.9 978.1 1264.9 1033 1281.1C1062.1 1289.7 1092.7 1299.3 1120.1 1312.8C1145.6 1325.4 1159.7 1336.9 1188.5 1337.2C1247.4 1337.8 1290.2 1349.5 1334.1 1392.4C1382.3 1439.5 1474 1554.2 1464.6 1600" stroke="#788675" stroke-miterlimit="10" stroke-linecap="round"/>
<path d="M1519.3 1600.1C1523.4 1537.5 1415.7 1444.4 1374.1 1390.9C1354.2 1365.3 1331.8 1351.3 1303.6 1335.2C1270 1315.9 1232 1308.7 1195.9 1295.4C1163.7 1283.5 1133.1 1262.7 1102 1247.6C1044.4 1219.8 984.4 1167.8 953.5 1111.4C944 1094.1 940.4 1078.7 941.3 1059C942.4 1035.2 937 1014.7 933.6 990.9C926.5 940.4 927.3 885.3 932.5 834.7C936.1 799.9 930.1 760.6 937 726.6C942.9 697.6 962.4 671.8 975.8 646C990.3 618 1005.2 590.3 1019.4 561.9C1037.7 525.4 1060.1 491.9 1074.6 453.5C1086.4 422.3 1089.8 393 1089.8 360.1C1089.8 326 1086.5 295.4 1068.3 266.9C1057.8 250.4 1043.5 231.8 1039.1 212.6C1037 203.4 1040 195.7 1039 186.6C1035.2 152.2 1039.5 113.4 1046.6 79.5C1053.8 45.4 1071.2 22.1 1071.2 1.09998" stroke="#788675" stroke-miterlimit="10" stroke-linecap="round"/>
<path d="M1094.3 0.799988C1079.8 44.9 1058.8 101.2 1056.9 145.9C1054.8 194.5 1079.9 234.2 1092.1 279.6C1099.5 307.2 1106.1 331.9 1105.4 360.8C1104.8 387.8 1105.4 416.5 1102.1 442.7C1098.1 475.1 1081.1 507.1 1068.7 536.9C1031.8 625.6 988.7 717.6 983.6 814.5C980.6 871.1 980.5 928.1 989.1 984.2C994.1 1016.8 995.9 1048 1014.5 1076.2C1032.1 1102.8 1062.6 1126 1087.7 1145.2C1120.3 1170.2 1150.9 1196.8 1187.2 1216.7C1243.6 1247.6 1291.9 1288.7 1338.8 1332.7C1379.4 1370.7 1428.7 1401 1465.4 1443.6C1483.9 1465 1503.7 1490.5 1515.3 1516.4C1517.4 1521 1542.9 1590.9 1551.3 1600.2" stroke="#788675" stroke-miterlimit="10" stroke-linecap="round"/>
<path d="M0.5 1173.7C22 1182.4 53 1175.9 79.4 1207.1C103.4 1235.5 136.2 1258.4 171.2 1271.7C206.3 1285.1 242.8 1294.7 278.1 1307.4C298.8 1314.9 319.7 1321.6 340.3 1329.1C354 1334.1 369.1 1336.6 378.3 1349C405.1 1385.4 337.2 1365.6 326 1360.7C309.9 1353.6 297 1341.8 279.2 1338.2C265.7 1335.5 252.8 1333.1 239.4 1329.8C212 1323.1 186 1316.4 158.1 1312.7C134.5 1309.6 95.5 1310.3 95.5 1310.3C95.5 1310.3 123.9 1332.7 142.2 1337.7C169 1344.9 193.3 1353.8 220.2 1358.9C238.5 1362.4 254.7 1365.6 271 1374.8C292 1386.7 315.1 1402.9 337.5 1411.4C352.8 1417.2 409.1 1428.4 404.2 1448.6C400.3 1464.9 353.8 1456.8 343.3 1454.5C328.3 1451.2 314.4 1443.8 299.2 1440.4C286.4 1437.5 272.5 1437.1 260.8 1430.8C240.8 1420.2 219.6 1402.8 202.1 1388.3C189.8 1378.2 180.5 1374.2 164.1 1371.3C159.9 1370.6 139.7 1366 135.7 1370.1C127 1379.2 149.5 1402 156.3 1406.5C166.7 1413.3 180.7 1417.7 192.1 1422.7C218.6 1434.3 242 1451.9 267.7 1464.6C297.1 1479.1 337.2 1492.9 369.8 1490.6C369.8 1490.6 414.8 1483 426.8 1505.1" stroke="#788675" stroke-miterlimit="10" stroke-linecap="round"/>
<path d="M1588.3 1600.1C1580.2 1546.8 1521.8 1450.6 1500.8 1420.8C1479.8 1390.9 1467.7 1357 1441 1330.8C1395.3 1286 1333.2 1262.8 1280.9 1227.8C1234.4 1196.8 1188.5 1165.1 1147.6 1126.9C1126.8 1107.5 1109.1 1089 1085.3 1073.4C1072.4 1064.9 1042.3 1049.2 1039.3 1032.7C1052.8 1028.2 1059.5 1023.4 1073.3 1028.2C1097 1036.5 1117.2 1061.7 1136 1077.1C1172.4 1106.9 1216.9 1122.9 1255.9 1148.6C1285.3 1167.9 1308.4 1197.5 1335.8 1219.7C1368.6 1246.2 1406 1266 1437.8 1293.6C1462.8 1315.3 1488.2 1342.4 1515.4 1360.6C1534.2 1344.8 1515.8 1301.5 1502.9 1288.5C1469.6 1254.9 1420.4 1246.2 1388.4 1212.2C1373.5 1196.3 1367.3 1177.2 1354 1160.9C1327.4 1128.2 1283.6 1103.2 1251.5 1076.5C1195.7 1030 1140.2 989.1 1071.5 968.5C1060.5 965.2 1043.6 940.6 1043.6 940.6C1043.6 940.6 1055.2 867.7 1039.3 760C1032.6 714.6 1050.5 667.8 1068.1 625.6C1088.6 576.5 1094.4 520.6 1114.8 470.4C1124.3 447 1134 424.5 1139.8 399.8C1146.6 370.8 1141.2 341.1 1138.9 311.7C1133.4 241.2 1119.6 171.5 1114.7 101.1C1112.5 68.9 1110 32.9 1115.3 0.900024" stroke="#788675" stroke-miterlimit="10" stroke-linecap="round"/>
<path d="M1464.7 0.799988C1457.3 36.8 1436.6 86.3 1434.2 123.8C1432.8 146.4 1443.9 153.1 1458.9 167.5C1495 202.1 1538.2 231.1 1567.8 271.8C1582.5 291.9 1591.3 312.5 1592.1 337.7C1592.5 350.8 1592.1 364 1592.1 377.1C1592.1 396.4 1596.9 418.9 1592.1 437.5C1587.2 456.9 1568 465.7 1554.7 478.9C1541.8 491.7 1531.6 502.2 1515.3 510.8C1459 540.3 1391.8 539.3 1343.1 581.8C1326.3 596.5 1308.8 610.4 1291.4 624.3C1279 634.1 1262.3 644.8 1255.6 659.9C1225.5 727.8 1304.1 772.7 1354.7 794.2C1382.9 806.2 1411.8 814.6 1442.2 817.2C1461.4 818.8 1492.6 823.9 1509.8 812C1513.8 809.2 1521.1 800.9 1520.4 795.6C1518.8 783.2 1499.7 788.7 1491 789.5C1481.2 790.4 1470.5 789.2 1460.7 788.4C1449.3 787.5 1438 786.6 1426.6 786.5C1417.6 786.4 1410.6 781.1 1402.2 778.7C1398.7 777.7 1397.9 777.4 1396.1 774.4C1390.5 765.1 1377.4 764.6 1368.4 760.7C1356.7 755.6 1351.1 744.8 1341.3 737C1331.3 729.1 1321.5 720.9 1311.5 713C1307.8 710.1 1303.8 707.3 1299.9 704.6C1296.1 702.1 1294.3 701 1292.6 696.6C1288.6 685.9 1281.2 658.1 1291.4 648.5C1293.5 646.5 1296.5 645.3 1298.8 643.6C1302 641.2 1304.3 637.9 1307.8 636C1320.9 628.7 1330.9 617.4 1343.5 609.4C1358.2 600.1 1375.5 599.1 1392.1 595C1395.1 594.3 1397 592.3 1399.7 590.8C1403.7 588.6 1408.3 587.9 1412.5 586.1C1416.8 584.3 1421.3 582.4 1425.1 579.8C1428.4 577.6 1431.5 575.2 1435.1 573.4C1439.5 571.2 1444.5 570 1449.1 568.2C1452.1 567.1 1455 565.6 1458.1 564.8C1463.9 563.3 1470.9 564.1 1476.9 563.3C1481.6 562.7 1511.8 558.1 1509.3 564.3C1507 570 1504.8 575.2 1501.2 580.4C1487.1 600.8 1460 607.4 1438.2 616C1414.2 625.5 1395.5 642.3 1388.5 667.8C1386.9 673.5 1386.3 679.1 1384.1 684.6C1382.8 687.9 1381.1 691.1 1380.5 694.6C1379.9 698.4 1380.3 702.6 1380.3 706.4C1380.3 711.7 1383.5 716.1 1387.2 719.6C1396.7 728.9 1415.2 731.5 1427.7 734.8C1434.4 736.6 1441.2 737.7 1448 738.9C1450.2 739.3 1452.4 739.6 1454.4 740.6C1462.3 744.6 1469 750.7 1476.8 754.9C1480.3 756.8 1481.6 760.3 1485 761.9C1487.8 763.2 1492.3 766.2 1495.5 764.9C1496.6 764.5 1497.4 763.2 1498.7 762.8C1500.9 762 1502.4 762 1504.4 760.6C1507 758.8 1507.9 757.1 1508.7 754C1510.1 748.2 1508.5 744.6 1504.9 739.9C1498.1 731.1 1489.3 724.4 1480.6 717.6C1475.5 713.6 1471.1 708.7 1466.4 704.1C1464.2 702 1462.1 699.7 1460.1 697.4C1457.8 694.7 1453.9 690.1 1452.7 686.5C1450.9 680.7 1455.4 674.1 1458.2 669.1C1461.2 663.7 1465.3 658.3 1470.7 655.2C1473.4 653.6 1476.3 653.7 1479.4 653.3C1484.4 652.6 1488.7 651.7 1493 649C1496.2 646.9 1500.5 644.8 1502.6 641.4C1506.5 635.1 1502.7 626.7 1506.4 620.2C1508.7 616.1 1512.3 613 1515.4 609.5C1519.1 605.5 1523 601.7 1526.6 597.5C1530.4 593.1 1533.3 588 1537.1 583.5C1540.1 580 1543 577.2 1546.7 574.4C1550.7 571.4 1554.1 567.8 1557.4 564.1C1558.8 562.6 1560.1 560.9 1561.6 559.5C1563 558.2 1600.4 528 1600.6 526.3" stroke="#788675" stroke-miterlimit="10" stroke-linecap="round"/>
<path d="M884.8 811.4C883.1 832.5 887.6 858.7 889.1 865C891.9 876.8 893.9 888.7 895.9 900.7C898 913.1 899.8 925.5 901.8 937.9C903.3 947.6 906 957.1 907.3 966.8C908.6 975.7 907.4 984.1 907.4 993C907.4 1005.3 905.5 1019.6 908.9 1031.5C912.6 1044.4 921.6 1061.1 930.4 1071.1C931.7 1072.6 932.7 1074.3 934 1075.7C935.1 1076.9 945.2 1098.8 951.9 1108.2" stroke="#788675" stroke-miterlimit="10" stroke-linecap="round"/>
<path d="M545 935.8C545 935.8 561.5 904.1 582.7 866.7C585.4 862 589.1 856.5 591.4 851.6C595.8 842.4 599.1 832.5 604.9 824C608.7 818.4 613.4 813.3 616.7 807.4C619.8 801.7 621 795 622.7 788.7C622.9 787.8 623.2 786.8 623.8 786.1C626.6 782.7 635.2 783.7 639.1 781.5C640.8 780.6 643 778.4 644.3 776.9C646.3 774.5 648 771.3 649.7 768.6C651.4 765.8 652.6 763.4 654.9 761.2C656.3 759.8 664.6 749.1 665.7 747.4" stroke="#788675" stroke-miterlimit="10" stroke-linecap="round"/>
<path d="M1.19995 1014.5C39.9 1014.5 66.3 1041.8 91.7 1070.1C98.8 1078 98.4 1085 110.6 1085.5C117.8 1085.8 118.3 1081.4 127.5 1083.5C134.1 1085 137.5 1091.1 144.4 1091.2C160.7 1091.4 157.3 1078.8 158.3 1068.7C160.2 1051.1 178.2 1036.4 158.6 1022.9C143.3 1012.4 117 1028.6 107.8 1010.1C86.8 968.1 154.7 943.8 177.2 926.3C193.1 913.9 201.3 891.8 220 885.1C229.4 881.8 236.9 882.4 244.9 876.1C248.2 873.5 250.1 869.2 253.4 866.7C258.4 863 263.9 863.5 267.9 861.1C278.2 854.8 274 860.6 278.3 847.7C281.9 836.9 281.6 825.3 285.6 814.6C293.1 794.5 319.8 749 328.4 724.6C329.9 719.8 336.8 697.8 339 693.4C340.6 690.3 344 688.8 346.4 686.4C350.6 682.4 352.9 677.5 354.7 672.1C356.5 666.5 356.5 661.7 356.5 655.9C356.4 639.3 362.6 638.8 374 628.2C382.4 620.4 385.4 606.7 381.8 595.8C380.3 591.3 377.6 588.7 374.2 585.5C371.1 582.5 368.8 578.7 366.1 575.3C361.4 569.5 355.2 566.1 348.4 562.9C343.3 560.5 338.3 557.9 333.2 555.6C329.4 553.9 325.3 552.8 321.5 551C319 549.8 316.5 548.9 314.1 547.8C310.2 546.1 306.3 543.2 302.8 540.9C297 537.1 291.3 532.7 284.6 530.7C281.8 529.9 279.1 529.2 276.3 528.2C273.4 527.1 270.9 525.5 268 524.4C266.1 523.7 256.7 517.5 255.1 516.6" stroke="#788675" stroke-miterlimit="10" stroke-linecap="round"/>
<path d="M891 298C891.5 297.1 897.4 257.7 900.5 250.8C903.6 243.9 909.3 237.8 910.8 226.3C912.3 214.8 910.8 203.7 912.7 188.8C914.6 173.9 922.7 132.3 923.5 128.8" stroke="#788675" stroke-miterlimit="10" stroke-linecap="round"/>
<path d="M1251 539.8C1251 539.8 1272.8 493.6 1280.7 485C1288.6 476.5 1285.3 467.9 1293.8 457.4C1302.3 446.9 1329.9 414.7 1330.6 399.6C1331.3 384.5 1335.2 366.1 1330.6 353C1326 339.9 1316.8 328.7 1303.7 309.7C1290.6 290.7 1271.2 254.9 1268.6 239.4C1262.7 204.5 1293.6 114.4 1293.6 114.4" stroke="#788675" stroke-miterlimit="10" stroke-linecap="round"/>
<path d="M1039.3 1032.8C1039.3 1032.8 1016 1023.6 1013.3 1016.6C1010.6 1009.6 1005.2 994.4 1003 990C1000.8 985.7 986.8 968.7 986.8 968.7" stroke="#788675" stroke-miterlimit="10" stroke-linecap="round"/>
<path d="M241.6 294.4C241.6 294.4 225.5 259.8 199 225C183.1 204.1 152.7 183.6 150.1 168.8C147.3 152.4 104.8 114.7 79.2 93.1" stroke="#788675" stroke-miterlimit="10" stroke-linecap="round"/>
<path d="M894.1 508.7C894.1 508.7 900.7 554.8 884.4 569.6C868.1 584.4 858.5 575.5 837.9 616C817.3 656.5 808.4 697.4 782.3 722.5C756.2 747.6 740.1 783 737.4 819.6" stroke="#788675" stroke-miterlimit="10" stroke-linecap="round"/>
<path d="M233.9 1220.6C233.9 1220.6 225 1211.8 225.8 1185.1C226.6 1158.4 233.9 1122.2 233.9 1122.2C233.9 1122.2 242.3 1085.1 244.7 1075.3C247.1 1065.5 248.2 1033.4 256.8 1021.5" stroke="#788675" stroke-miterlimit="10" stroke-linecap="round"/>
<path d="M543.9 1150.6C543.5 1145.5 544.3 1098.7 550.3 1087.3C556.3 1075.9 567.7 1052.9 583.7 1044.7C599.8 1036.5 624.2 990.3 628 979.4" stroke="#788675" stroke-miterlimit="10" stroke-linecap="round"/>
<path d="M872.4 1328.1C850.5 1328.4 835.7 1330.5 825.9 1327.6C816 1324.7 788.8 1305 786.4 1290.1C783.9 1275.3 727.1 1218 723.4 1213.1C719.7 1208.2 677.3 1162.2 632.6 1171.4" stroke="#788675" stroke-miterlimit="10" stroke-linecap="round"/>
<path d="M1120.1 619.9C1120.1 619.9 1118.8 555.7 1125.2 539.8C1131.6 523.9 1141.4 511.7 1144.3 485.7C1147.2 459.6 1137.6 424.6 1137.4 408.9" stroke="#788675" stroke-miterlimit="10" stroke-linecap="round"/>
<path d="M864.6 1210.6C864.6 1210.6 857.4 1185.4 855.7 1181.5" stroke="#788675" stroke-miterlimit="10" stroke-linecap="round"/>
<path d="M448.4 496.3C448.4 496.3 470 493.3 485.7 501.6C501.3 509.9 518.4 529 527.7 534.1C537 539.2 567.3 562.2 571.7 569.6C576.1 577.1 575.1 604.7 571.7 614.9C568.3 625.2 563.1 656.4 563 662.3C562.9 668.2 563.2 677 558.8 683.3" stroke="#788675" stroke-miterlimit="10" stroke-linecap="round"/>
<path d="M792.4 1065C792.4 1065 784.7 1019.1 785.5 995.1C786.3 971.1 790.3 954.5 792.4 929.7C794.5 904.9 797.1 884.6 792.4 861.3C787.7 838 788.3 797.5 793.8 783" stroke="#788675" stroke-miterlimit="10" stroke-linecap="round"/>
<path d="M648.1 152.3C648.1 152.3 621.4 159.2 616.9 160.7C612.4 162.1 605.9 163.6 600.6 169.3C595.3 175 567 217.2 554.6 227.6C542.2 238 525.9 249.2 518.3 260.5" stroke="#788675" stroke-miterlimit="10" stroke-linecap="round"/>
<path d="M1.2001 996.5C1.2001 996.5 36.0001 1015 57.5001 992.7C79.0001 970.5 107.4 923.6 117.3 914C127.3 904.5 121 904.5 143.3 896C165.6 887.6 182.6 864.6 182.6 864.6C182.6 864.6 212.5 846 227 822.3C241.5 798.6 244.6 746 245.2 736.8C246.5 718.4 268.4 717.1 263.6 681C262.1 669.7 238.2 651.4 231.7 633.2C217.3 593.2 223.5 582 215.5 569.4C182.7 518 163.9 519.6 152.4 504C140.9 488.4 133.8 473 81.7001 464.8C29.7001 456.6 1.1001 441.7 1.1001 441.7" stroke="#788675" stroke-miterlimit="10" stroke-linecap="round"/>
<path d="M781.5 337.6C781.5 337.6 764.4 372.7 763.3 377.5C762.2 382.3 761.4 390.2 761.4 390.2C760.9 395 761.2 398.4 763.9 402.4C766.6 406.4 768.9 410.9 769.2 415.8C769.5 422.5 769.9 428.5 772.7 434.7C776.9 444.2 784.5 449.9 792.4 456.1C801.1 462.9 808.9 470.9 818.1 477C822.3 479.8 827.1 482.6 832.1 483.2C838.4 484 844.8 483.2 851.1 482.7C856 482.3 861.1 483 865.7 481.3C870.6 479.6 875.4 477.5 880.4 475.9C887.5 473.7 897.1 472.4 901.8 466C904.9 461.8 908 457.5 911.1 453.3C919 442.5 926.8 431.7 934.6 420.8C936.3 418.5 938.8 415.9 939.8 413.2C940.5 411.3 939.9 406.1 949.9 394.8" stroke="#788675" stroke-miterlimit="10" stroke-linecap="round"/>
<path d="M823.8 1396.7C834.6 1394.2 862.2 1367.1 874.9 1361.3C887.6 1355.5 906.1 1357.9 928.5 1355.1C950.9 1352.4 959.6 1348.9 972.6 1347.9C985.6 1346.9 993.9 1350 1009.6 1355.4C1025.4 1360.9 1040.1 1369.8 1053.5 1376C1066.9 1382.2 1088.9 1389.4 1088.9 1389.4C1091.2 1390.1 1138 1416.3 1149.7 1438.1C1158.2 1454 1163.5 1451.3 1178.7 1469.8C1193.9 1488.3 1207.8 1488.9 1208.4 1505.1C1209.1 1521.3 1243.4 1573.2 1281.9 1599.9" stroke="#788675" stroke-miterlimit="10" stroke-linecap="round"/>
<path d="M1515.4 1360.6C1515.4 1360.6 1507 1386.2 1517.8 1400.1C1528.5 1414 1600.5 1502.3 1600.5 1502.3" stroke="#788675" stroke-miterlimit="10" stroke-linecap="round"/>
<path d="M1380.5 321.7C1379.6 318.8 1377.7 300.5 1377.3 279.9C1376.8 259.3 1383.6 256.1 1372.8 235.5C1362 214.9 1352.6 227.4 1355.3 199.6C1358 171.8 1347.6 122.4 1376.2 100.3" stroke="#788675" stroke-miterlimit="10" stroke-linecap="round"/>
<path d="M1523.4 224.1C1523.4 224.1 1497 192.5 1490.5 164.5C1484 136.4 1485.9 118.8 1485.9 118.8C1485.9 118.8 1492.4 99.3 1492.4 92.9V75.2C1492.4 72.4 1503.5 58.4 1509.1 48.7C1514.7 39.1 1519.4 0.799988 1519.4 0.799988" stroke="#788675" stroke-miterlimit="10" stroke-linecap="round"/>
<path d="M95.5 1310.4C95.5 1310.4 67 1309.2 58 1304C49 1298.8 23.7 1280.2 1.19995 1286.4" stroke="#788675" stroke-miterlimit="10" stroke-linecap="round"/>
<path d="M1043.6 940.5C1043.6 940.5 1019.9 957.1 1019.1 914.1C1017.8 840.2 1003.9 821.2 998.4 803.9C992.9 786.5 986.7 771.9 993.1 745.8" stroke="#788675" stroke-miterlimit="10" stroke-linecap="round"/>
<path d="M439.3 1204.1C439.3 1204.1 438.1 1208.1 424.3 1201.7C410.5 1195.3 398.1 1188.9 398.1 1188.9L383.4 1175C383.4 1175 364.1 1143.2 364.4 1133.6" stroke="#788675" stroke-miterlimit="10" stroke-linecap="round"/>
<path d="M1168.1 1013.9C1168.1 1013.9 1225.5 1046.4 1246.7 1044.7C1267.9 1043 1285 1051.7 1291.8 1056.1C1298.6 1060.5 1319.9 1069.5 1319.9 1069.5" stroke="#788675" stroke-miterlimit="10" stroke-linecap="round"/>
<path d="M1228.8 947.7C1228.8 947.7 1222.8 945.9 1208.7 941C1175.2 929.5 1155.7 886.8 1154.6 871.1" stroke="#788675" stroke-miterlimit="10" stroke-linecap="round"/>
<path d="M1516.2 1161.3C1516.2 1161.3 1553.5 1184.5 1560 1232.1C1572 1320.1 1600.5 1338.9 1600.5 1338.9" stroke="#788675" stroke-miterlimit="10" stroke-linecap="round"/>
<path d="M387.1 33.3C387.1 33.3 429.1 22.7 459 0.900024" stroke="#788675" stroke-miterlimit="10" stroke-linecap="round"/>
</g>
<defs>
<clipPath id="clip0_149_743">
<rect width="1601" height="1600.8" fill="white"/>
</clipPath>
</defs>
</svg>
