<svg width="104" height="80" viewBox="0 0 104 80" fill="none" xmlns="http://www.w3.org/2000/svg">
<path d="M53.1675 45.3276L72.5605 55.1729L53.1675 65.0182V45.3276ZM51.4342 42.6901V67.6663L75.9907 55.1729L51.4342 42.6901Z" fill="#414042"/>
<path d="M26.314 3.55753L45.707 13.4028L26.314 23.248V3.55753ZM24.5807 0.920023L24.5807 25.8962L49.1372 13.4028L24.5807 0.920023Z" fill="#414042"/>
<path d="M2.31403 45.3276L21.707 55.1729L2.31403 65.0182L2.31403 45.3276ZM0.580727 42.6901L0.580727 67.6663L25.1372 55.1729L0.580727 42.6901Z" fill="#414042"/>
<path d="M2.31403 30.8682L21.707 40.7135L2.31403 50.5587L2.31403 30.8682ZM0.580727 28.2307L0.580727 53.2068L25.1372 40.7135L0.580727 28.2307Z" fill="#414042"/>
<path d="M2.31403 18.5343L21.707 28.3796L2.31403 38.2248L2.31403 18.5343ZM0.580727 15.8968L0.580727 40.873L25.1372 28.3796L0.580727 15.8968Z" fill="#414042"/>
<path d="M29.0472 28.2105L48.4402 18.3653V38.0558L29.0472 28.2105ZM25.5807 28.2105L50.1371 40.7039V15.7171L25.5807 28.2105Z" fill="#414042"/>
<path d="M25.5807 79.6365L47.3009 69.1612L26.1261 57.7142L25.5807 79.6365Z" fill="#414042"/>
<path d="M27.4838 55.1727L49.0828 44.1848V66.1818L27.4838 55.1727Z" fill="#414042"/>
<path d="M53.7977 41.3552L75.9907 30.3567V52.8769L53.7977 41.6969V41.3552Z" fill="#414042"/>
<path d="M80.314 31.7491L99.707 41.5944L80.314 51.4397V31.7491ZM78.5807 29.1116V54.0878L103.137 41.5944L78.5807 29.1116Z" fill="#414042"/>
<path d="M52.4523 38.974L74.3058 28.2105L52.4523 17.2974V38.974Z" fill="#414042"/>
</svg>
